<svg xmlns="http://www.w3.org/2000/svg" viewBox="0 0 150 130" role="img" aria-label="Pakistan flag">
<defs><linearGradient id="cloth"><stop stop-color="#022e20"/><stop offset=".38" stop-color="#147248"/><stop offset=".65" stop-color="#03432c"/><stop offset="1" stop-color="#012b1e"/></linearGradient><linearGradient id="white"><stop stop-color="#c6d3d2"/><stop offset=".55" stop-color="#fff"/><stop offset="1" stop-color="#bbcaca"/></linearGradient><clipPath id="flag"><path d="M24 11C58 0 91 34 137 24L127 96C89 108 57 68 24 82Z"/></clipPath></defs>
<path d="M22 10V125" stroke="#a5aeb0" stroke-width="3"/><circle cx="22" cy="8" r="4" fill="#d7c28e"/>
<g clip-path="url(#flag)"><path d="M24 11C58 0 91 34 137 24L127 96C89 108 57 68 24 82Z" fill="url(#cloth)"/><path d="M24 0h27v100H24Z" fill="url(#white)"/><g transform="translate(91 53) rotate(18)"><path d="M13-22A25 25 0 1 0 22 13A22 22 0 1 1 13-22" fill="#fff"/><path d="m14-16 2.9 8.5 9 .2-7.2 5.4 2.6 8.6-7.3-5.1-7.3 5.1 2.6-8.6-7.2-5.4 9-.2Z" fill="#fff"/></g><path d="M27 14C67 5 94 39 133 27" stroke="#ffffff" stroke-opacity=".12" fill="none" stroke-width="4"/></g></svg>
